<svg width="64" height="64" viewBox="0 0 64 64" fill="none" xmlns="http://www.w3.org/2000/svg">
<path fill-rule="evenodd" clip-rule="evenodd" d="M35.7027 13.0904C35.5489 13.7117 35.006 14.1119 34.4902 13.9842C33.9744 13.8565 33.681 13.2493 33.8348 12.6279C33.9887 12.0066 34.5315 11.6065 35.0473 11.7342C35.5631 11.8619 35.8565 12.4691 35.7027 13.0904ZM31.118 14.4487C28.8254 16.4074 27.2588 19.1176 26.2135 21.9118C25.5794 23.6069 25.1278 25.3555 24.819 27.028C24.0211 25.6305 22.8538 24.6264 21.4076 24.2535C19.0588 23.6478 16.5489 24.8552 14.7095 27.1707C16.8794 19.672 23.6389 14.6705 31.118 14.4487ZM25.9114 30.3897C25.9205 30.4568 25.929 30.5241 25.937 30.5918C27.3973 28.5518 29.3579 27.2508 31.3388 27.095L27.5324 46.4726C22.9117 46.5785 19.0223 48.9851 17.6432 52.29H38.0578C36.806 49.2902 33.4863 47.0305 29.4284 46.5596L33.2108 27.3041C35.4884 28.019 37.0291 30.3361 37.4555 33.2617C37.9591 30.6965 38.2727 27.3403 37.9056 24.0323C37.5012 20.3895 36.2868 16.9151 33.7074 14.5637C33.6716 14.5595 33.6358 14.5553 33.6001 14.5513C30.771 16.2488 28.8766 19.1864 27.6552 22.4511C26.6501 25.138 26.1265 27.9836 25.9114 30.3897ZM36.2329 15.0513C38.1621 17.577 39.0894 20.7453 39.4354 23.8625C39.7298 26.5144 39.6109 29.1821 39.3042 31.4936C40.871 30.2682 42.6783 29.7389 44.3991 30.1826C46.7481 30.7884 48.3612 33.0591 48.8512 35.976C50.9401 26.7696 45.3882 17.5133 36.2329 15.0513Z" fill="#0CA5E6"/>
</svg>
