<svg width="64" height="64" viewBox="0 0 64 64" fill="none" xmlns="http://www.w3.org/2000/svg">
<path fill-rule="evenodd" clip-rule="evenodd" d="M37.243 14L44.9202 23.3892H41.6496L35.2828 15.6027L37.243 14ZM27.4775 14.0001L19.8003 23.3892H23.071L29.4376 15.6029L27.4775 14.0001ZM13 24.9216H51.719V28.1886H48.4518V47.5705C48.4518 49.2273 47.1086 50.5705 45.4518 50.5705H19.2676C17.6107 50.5705 16.2676 49.2273 16.2676 47.5705V28.1886H13V24.9216ZM20.0098 30.2868H23.8454V34.7124H20.0098V30.2868ZM20.0098 41.4919H23.8454V45.9175H20.0098V41.4919ZM34.2781 30.2868H30.4424V34.7124H34.2781V30.2868ZM30.4424 41.4919H34.2781V45.9175H30.4424V41.4919ZM44.7107 30.2868H40.875V34.7124H44.7107V30.2868ZM40.875 41.4919H44.7107V45.9175H40.875V41.4919Z" fill="#0CA5E6"/>
</svg>
