<svg width="64" height="64" viewBox="0 0 64 64" fill="none" xmlns="http://www.w3.org/2000/svg">
<path fill-rule="evenodd" clip-rule="evenodd" d="M24.7128 17.2341C24.7128 15.448 26.1607 14 27.9469 14H37.8497C39.6359 14 41.0839 15.448 41.0839 17.2341V23.3076H47.1666C48.6837 23.3076 49.962 24.4402 50.1447 25.9462L52.6508 46.5995C52.8677 48.3865 51.4728 49.9609 49.6727 49.9609H15.0002C13.2 49.9609 11.8052 48.3865 12.022 46.5995L14.5281 25.9462C14.7108 24.4402 15.9891 23.3076 17.5062 23.3076H24.7128V17.2341ZM38.9278 17.2341V23.3076H26.8689V17.2341C26.8689 16.6387 27.3515 16.1561 27.9469 16.1561H37.8497C38.4451 16.1561 38.9278 16.6387 38.9278 17.2341ZM30.7371 30.7842H33.9367V34.5918H37.7449V37.7915H33.9367V41.6H30.7371V37.7915H26.9291V34.5918H30.7371V30.7842Z" fill="#0CA5E6"/>
</svg>
