<svg width="64" height="64" viewBox="0 0 64 64" fill="none" xmlns="http://www.w3.org/2000/svg">
<path fill-rule="evenodd" clip-rule="evenodd" d="M60.3636 28.0816L31.6818 17L3 27.4297L7.5625 29.04V37.5471C6.57458 37.8301 5.85156 38.7401 5.85156 39.819C5.85156 40.8585 6.52278 41.7412 7.45544 42.0573L5.60742 46.9854L10.1704 45.6817L8.96346 42.0607C9.90135 41.7475 10.5774 40.8622 10.5774 39.819C10.5774 38.74 9.85426 37.83 8.86622 37.5471V29.5002L14.0816 31.3409V38.5114C14.0816 38.5114 21.9039 43.0744 31.6818 43.0744C40.156 43.0744 47.9783 38.5114 47.9783 38.5114V31.769C45.604 30.0118 42.5598 29.0898 39.578 28.678C36.2265 28.2152 33.0337 28.4081 31.1372 28.7242L30.9229 27.4382C32.9375 27.1024 36.2632 26.9042 39.7563 27.3866C43.0092 27.8358 46.4772 28.885 49.1564 31.0309L60.3636 28.0816Z" fill="#0CA5E6"/>
</svg>
