<svg width="69" height="68" viewBox="0 0 69 68" fill="none" xmlns="http://www.w3.org/2000/svg">
<circle cx="34.4578" cy="34" r="33" fill="#0CA5E6" stroke="white" stroke-width="2"/>
<path fill-rule="evenodd" clip-rule="evenodd" d="M33.849 17.22C31.1588 17.2161 20.1132 17.2001 20.1132 21.0687V24.8439C18.3957 24.8439 17.0034 26.2362 17.0034 27.9537V28.7312C17.0034 30.4488 18.3957 31.8411 20.1132 31.8411V43.0155C20.1132 44.1018 20.6678 45.0583 21.5091 45.6176V48.7797C21.5091 49.8843 22.4046 50.7797 23.5091 50.7797H24.6982C25.8028 50.7797 26.6982 49.8843 26.6982 48.7797V46.1378H41.3046V48.7797C41.3046 49.8843 42.2 50.7797 43.3046 50.7797H44.4937C45.5982 50.7797 46.4937 49.8843 46.4937 48.7797V45.6157C47.3334 45.0561 47.8867 44.1006 47.8867 43.0155V31.8411C49.6042 31.8411 50.9965 30.4488 50.9965 28.7312V27.9537C50.9965 26.2362 49.6042 24.8439 47.8867 24.8439V21.0687C47.8867 17.2156 36.9115 17.2192 34.196 17.2202H34.0141L33.849 17.22ZM38.7477 19.8599H29.2521V22.8331H38.7477V19.8599ZM24.2148 24.2643C23.1102 24.2643 22.2148 25.1597 22.2148 26.2643V36.3252C22.2148 37.4297 23.1102 38.3252 24.2148 38.3252H43.7848C44.8894 38.3252 45.7848 37.4297 45.7848 36.3252V26.2643C45.7848 25.1597 44.8894 24.2643 43.7848 24.2643H24.2148ZM45.7558 42.606C45.7558 43.6422 44.9158 44.4821 43.8797 44.4821C42.8435 44.4821 42.0036 43.6422 42.0036 42.606C42.0036 41.5699 42.8435 40.7299 43.8797 40.7299C44.9158 40.7299 45.7558 41.5699 45.7558 42.606ZM25.9055 42.6061C25.9055 43.6423 25.0655 44.4822 24.0294 44.4822C22.9932 44.4822 22.1533 43.6423 22.1533 42.6061C22.1533 41.57 22.9932 40.73 24.0294 40.73C25.0655 40.73 25.9055 41.57 25.9055 42.6061Z" fill="white"/>
</svg>
