<svg width="69" height="68" viewBox="0 0 69 68" fill="none" xmlns="http://www.w3.org/2000/svg">
<circle cx="34.4578" cy="34" r="33" fill="#0CA5E6" stroke="white" stroke-width="2"/>
<path d="M37.8606 16.6217C37.7192 17.1927 37.2203 17.5605 36.7463 17.4431C36.2723 17.3257 36.0026 16.7677 36.144 16.1967C36.2854 15.6257 36.7843 15.258 37.2583 15.3753C37.7323 15.4927 38.002 16.0507 37.8606 16.6217Z" fill="white"/>
<path d="M33.6472 17.87C31.5403 19.67 30.1006 22.1607 29.14 24.7286C28.5572 26.2864 28.1422 27.8935 27.8584 29.4305C27.1251 28.1462 26.0524 27.2234 24.7233 26.8807C22.5647 26.324 20.258 27.4336 18.5676 29.5616C20.5618 22.6703 26.7739 18.0738 33.6472 17.87Z" fill="white"/>
<path d="M28.8623 32.5199C28.8707 32.5815 28.8785 32.6435 28.8858 32.7056C30.2279 30.8309 32.0296 29.6353 33.8501 29.492L30.352 47.3002C26.1056 47.3976 22.5312 49.6092 21.2638 52.6465H40.0249C38.8745 49.8897 35.8237 47.813 32.0945 47.3802L35.5705 29.6842C37.6637 30.3413 39.0796 32.4706 39.4714 35.1593C39.9343 32.8018 40.2225 29.7175 39.885 26.6775C39.5134 23.3297 38.3974 20.1367 36.0269 17.9757C35.994 17.9718 35.9611 17.968 35.9283 17.9643C33.3283 19.5243 31.5873 22.224 30.4649 25.2243C29.5411 27.6936 29.06 30.3087 28.8623 32.5199Z" fill="white"/>
<path d="M38.3479 18.4238C40.1208 20.7449 40.973 23.6566 41.291 26.5214C41.5615 28.9585 41.4523 31.4101 41.1704 33.5344C42.6103 32.4082 44.2713 31.9218 45.8526 32.3296C48.0115 32.8864 49.4939 34.9731 49.9442 37.6538C51.8639 29.1931 46.7616 20.6864 38.3479 18.4238Z" fill="white"/>
</svg>
