<svg width="68" height="68" viewBox="0 0 68 68" fill="none" xmlns="http://www.w3.org/2000/svg">
<circle cx="34" cy="34" r="33" fill="url(#paint0_linear_65_351)" stroke="white" stroke-width="2"/>
<path fill-rule="evenodd" clip-rule="evenodd" d="M46.4741 27.94L42.0481 38.1627C45.2503 39.178 48.3823 39.4426 50.798 37.7865L46.4741 27.94ZM41.5384 37.995L46.7661 26.0007H47.6654L52.2005 36.4858L52.4957 37.1683L53.2737 38.967C53.7097 39.9749 54.1295 40.9001 55 41.6662C54.2912 41.6662 53.5824 41.6662 52.8736 41.6662H52.852L51.4893 41.6674C52.1095 40.7986 51.8738 40.2361 51.5016 39.3882L51.2131 38.7311C49.422 40.3117 46.2584 41.3912 41.3417 40.2006L40.642 40.0189C39.8422 39.7979 38.9987 39.5187 38.1097 39.1738C37.2837 38.8554 36.4708 38.5017 35.6675 38.1289L34.1256 41.6672H33.226L30.6225 35.6478C27.0126 33.8976 23.4283 32.4933 19.4879 33.0662C18.4089 33.2162 17.4384 33.5182 16.6383 33.9402L14.4363 39.0263C14.0946 39.8158 13.7805 41.0923 14.6343 41.6672H13.293H12.6999H12C12.9114 41.2164 13.3804 40.1066 13.7677 39.2176L14.3452 37.8923V37.8921L14.3982 37.7707L15.8527 34.4333L16.7116 32.4621L16.7119 32.4618L19.5281 26H20.4277L22.6431 31.1223C24.5607 31.1629 26.7684 31.5603 29.2396 32.4507L27.6177 28.7007C27.1817 27.6926 26.762 26.7676 25.8914 26.0015C26.6002 26.0015 27.309 26.0015 28.0178 26.0015H28.0394L29.4021 26C28.782 26.8688 29.0176 27.4316 29.3901 28.2793L34.4176 39.7277L39.2173 28.6409C39.559 27.8514 39.8732 26.5746 39.0194 26H40.3606H40.9537H41.6537C40.7422 26.4508 40.2733 27.5606 39.886 28.4494L36.6313 35.9171C38.217 36.6872 39.8813 37.4342 41.5384 37.995ZM41.3331 40.6965L40.406 40.4616C40.1115 40.966 39.7425 41.4181 39.2375 41.6677H39.9377H40.5305H41.8718C41.5242 41.4333 41.3703 41.083 41.3331 40.6965ZM50.9683 37.6656L50.8492 37.7508C50.8896 37.7227 50.929 37.6944 50.9683 37.6656ZM17.4416 32.0839C18.3523 31.6659 19.4328 31.3579 20.6726 31.2124L19.2356 27.9398L17.4416 32.0839ZM52.4224 37.2936L52.3505 37.4095C52.3753 37.3709 52.399 37.332 52.4224 37.2936ZM23.6887 33.5419C23.0046 33.4303 22.3133 33.3656 21.6121 33.358L24.2631 39.3884C24.6356 40.2363 24.8712 40.7989 24.251 41.6677L25.6137 41.6665H25.6354C26.3442 41.6665 27.0529 41.6665 27.7617 41.6665C26.8912 40.9001 26.4714 39.9751 26.0354 38.9672L23.6887 33.5419Z" fill="white"/>
<defs>
<linearGradient id="paint0_linear_65_351" x1="2" y1="34" x2="66" y2="34" gradientUnits="userSpaceOnUse">
<stop stop-color="#114D8D"/>
<stop offset="1" stop-color="#019EE0"/>
</linearGradient>
</defs>
</svg>
