<svg width="68" height="68" viewBox="0 0 68 68" fill="none" xmlns="http://www.w3.org/2000/svg">
<circle cx="34" cy="34" r="33" fill="#0CA5E6" stroke="white" stroke-width="2"/>
<path fill-rule="evenodd" clip-rule="evenodd" d="M54.9997 31.6358L34.0003 23.5225L13.001 31.1586L16.3418 32.3377V38.5656C15.6184 38.7727 15.0889 39.4391 15.0889 40.229C15.0889 40.9901 15.5804 41.6365 16.2633 41.8679L14.9102 45.4763L18.251 44.5218L17.3672 41.8704C18.0539 41.6411 18.5489 40.9929 18.5489 40.229C18.5489 39.4392 18.0196 38.773 17.2963 38.5657V32.6746L21.1144 34.0221V39.272C21.1144 39.272 26.8415 42.6128 34.0003 42.6128C40.2047 42.6128 45.9318 39.272 45.9318 39.272V34.3349C44.1935 33.0487 41.965 32.3738 39.7822 32.0724C37.3284 31.7335 34.9907 31.8747 33.6022 32.1061L33.4453 31.1646C34.9204 30.9188 37.3553 30.7736 39.9127 31.1268C42.2943 31.4557 44.8334 32.2239 46.7949 33.795L54.9997 31.6358Z" fill="white"/>
</svg>
