<svg width="68" height="68" viewBox="0 0 68 68" fill="none" xmlns="http://www.w3.org/2000/svg">
<circle cx="34" cy="34" r="33" fill="#0CA5E6" stroke="white" stroke-width="2"/>
<path fill-rule="evenodd" clip-rule="evenodd" d="M38.8089 17.623L45.8046 26.1787H42.8244L37.0228 19.0835L38.8089 17.623ZM29.9105 17.6233L22.915 26.1787H25.8953L31.6966 19.0837L29.9105 17.6233ZM16.7188 27.575H51.9997V30.5519H49.0227V47.9455C49.0227 49.6023 47.6795 50.9455 46.0227 50.9455H22.6963C21.0394 50.9455 19.6963 49.6023 19.6963 47.9455V30.5519H16.7188V27.575ZM23.1055 32.4627H26.6006V36.4954H23.1055V32.4627ZM23.1055 42.6727H26.6006V46.7053H23.1055V42.6727ZM36.1064 32.4627H32.6113V36.4954H36.1064V32.4627ZM32.6113 42.6727H36.1064V46.7053H32.6113V42.6727ZM45.6132 32.4627H42.1182V36.4954H45.6132V32.4627ZM42.1182 42.6727H45.6132V46.7053H42.1182V42.6727Z" fill="white"/>
</svg>
