<svg width="68" height="68" viewBox="0 0 68 68" fill="none" xmlns="http://www.w3.org/2000/svg">
<circle cx="34" cy="34" r="33" fill="#0CA5E6" stroke="white" stroke-width="2"/>
<path fill-rule="evenodd" clip-rule="evenodd" d="M27.3672 21.6154C32.7787 23.0327 43.8972 28.9521 46.6532 41.5078L51.3133 40.4848C48.023 25.4956 34.9214 18.6619 28.576 17L27.3672 21.6154ZM19 49.3219L23.4811 34.3168C24.184 35.015 25.1522 35.4464 26.2212 35.4464C28.3686 35.4464 30.1094 33.7055 30.1094 31.5581C30.1094 29.4107 28.3686 27.6699 26.2212 27.6699C25.9546 27.6699 25.6943 27.6967 25.4428 27.7479L26.4125 24.501C37.1045 27.6457 42.623 37.6416 44.0457 42.2465L35.1927 44.7474C35.5399 44.1655 35.7393 43.4852 35.7393 42.7583C35.7393 40.6109 33.9985 38.8701 31.8511 38.8701C29.7037 38.8701 27.9629 40.6109 27.9629 42.7583C27.9629 44.2534 28.8067 45.5513 30.044 46.202L19 49.3219Z" fill="white"/>
</svg>
