<svg width="64" height="64" viewBox="0 0 64 64" fill="none" xmlns="http://www.w3.org/2000/svg">
<path fill-rule="evenodd" clip-rule="evenodd" d="M31.849 15.22C29.1588 15.2161 18.1132 15.2001 18.1132 19.0687V22.8439C16.3957 22.8439 15.0034 24.2362 15.0034 25.9537V26.7312C15.0034 28.4488 16.3957 29.8411 18.1132 29.8411V41.0155C18.1132 42.1018 18.6678 43.0583 19.5091 43.6176V46.7797C19.5091 47.8843 20.4046 48.7797 21.5091 48.7797H22.6982C23.8028 48.7797 24.6982 47.8843 24.6982 46.7797V44.1378H39.3046V46.7797C39.3046 47.8843 40.2 48.7797 41.3046 48.7797H42.4937C43.5982 48.7797 44.4937 47.8843 44.4937 46.7797V43.6157C45.3334 43.0561 45.8867 42.1006 45.8867 41.0155V29.8411C47.6042 29.8411 48.9965 28.4488 48.9965 26.7312V25.9537C48.9965 24.2362 47.6042 22.8439 45.8867 22.8439V19.0687C45.8867 15.2156 34.9115 15.2192 32.196 15.2202H32.0141L31.849 15.22ZM36.7477 17.8599H27.2521V20.8331H36.7477V17.8599ZM22.2148 22.2643C21.1102 22.2643 20.2148 23.1597 20.2148 24.2643V34.3252C20.2148 35.4297 21.1102 36.3252 22.2148 36.3252H41.7848C42.8894 36.3252 43.7848 35.4297 43.7848 34.3252V24.2643C43.7848 23.1597 42.8894 22.2643 41.7848 22.2643H22.2148ZM43.7558 40.606C43.7558 41.6422 42.9158 42.4821 41.8797 42.4821C40.8435 42.4821 40.0036 41.6422 40.0036 40.606C40.0036 39.5699 40.8435 38.7299 41.8797 38.7299C42.9158 38.7299 43.7558 39.5699 43.7558 40.606ZM23.9055 40.6061C23.9055 41.6423 23.0655 42.4822 22.0294 42.4822C20.9932 42.4822 20.1533 41.6423 20.1533 40.6061C20.1533 39.57 20.9932 38.73 22.0294 38.73C23.0655 38.73 23.9055 39.57 23.9055 40.6061Z" fill="#0CA5E6"/>
</svg>
