<svg width="64" height="64" viewBox="0 0 64 64" fill="none" xmlns="http://www.w3.org/2000/svg">
<path fill-rule="evenodd" clip-rule="evenodd" d="M21.7939 16.9541C28.7752 18.7826 43.1187 26.419 46.6742 42.6166L52.686 41.297C48.4413 21.9599 31.5393 13.144 23.3534 11L21.7939 16.9541ZM11 52.6963L16.7812 33.3377C17.688 34.2382 18.9369 34.7946 20.3158 34.7946C23.0861 34.7946 25.3319 32.5489 25.3319 29.7786C25.3319 27.0083 23.0861 24.7625 20.3158 24.7625C19.9721 24.7625 19.6364 24.7971 19.3121 24.863L20.5626 20.6757C34.356 24.7326 41.4752 37.6279 43.3106 43.5685L31.8886 46.7952C32.337 46.0442 32.5946 45.1661 32.5946 44.2278C32.5946 41.4575 30.3488 39.2117 27.5785 39.2117C24.8082 39.2117 22.5625 41.4575 22.5625 44.2278C22.5625 46.1571 23.6516 47.8319 25.2486 48.6711L11 52.6963Z" fill="#0CA5E6"/>
</svg>
