<svg width="64" height="64" viewBox="0 0 64 64" fill="none" xmlns="http://www.w3.org/2000/svg">
<path fill-rule="evenodd" clip-rule="evenodd" d="M17.2969 23C17.2969 21.3431 18.64 20 20.2969 20H21.1513C22.8081 20 24.1513 21.3431 24.1513 23V41.2407C24.1513 42.8976 22.8081 44.2407 21.1513 44.2407H20.2969C18.64 44.2407 17.2969 42.8976 17.2969 41.2407V40.5641H15C13.3431 40.5641 12 39.2209 12 37.5641V26.6768C12 25.0199 13.3431 23.6768 15 23.6768H17.2969V23ZM46.8965 23C46.8965 21.3431 45.5533 20 43.8965 20H43.0421C41.3852 20 40.0421 21.3431 40.0421 23V41.2407C40.0421 42.8976 41.3852 44.2407 43.0421 44.2407H43.8965C45.5533 44.2407 46.8965 42.8976 46.8965 41.2407V40.5641H49.1934C50.8502 40.5641 52.1934 39.2209 52.1934 37.5641V26.6768C52.1934 25.0199 50.8502 23.6768 49.1934 23.6768H46.8965V23ZM38.9068 29.0977H25.2871V35.1425H38.9068V29.0977Z" fill="#0CA5E6"/>
</svg>
