<svg width="64" height="64" viewBox="0 0 64 64" fill="none" xmlns="http://www.w3.org/2000/svg">
<path fill-rule="evenodd" clip-rule="evenodd" d="M14.6113 44.2687L17.8961 27.5398C16.9447 27.5838 15.7246 27.837 14.6079 28.471C13.2334 29.2514 11.9861 30.6209 11.573 33.0076L9.81836 32.7039C10.3288 29.755 11.9246 27.9467 13.7287 26.9225C15.3855 25.9818 17.1921 25.7134 18.4623 25.7563H33.6862C37.9681 9.72885 50.2644 9.90255 55.8773 11.9928C54.0539 12.2566 53.0676 13.7128 53.3619 14.5824C55.3469 19.0025 54.3828 24.2394 53.3619 24.6056C52.6566 24.8586 51.882 23.9221 51.0593 22.9273C50.4779 22.2243 49.8725 21.4922 49.2505 21.1304C46.6649 19.6263 45.0755 22.3804 45.3811 24.0658L48.7624 43.6773L46.0574 45.7906L42.3657 38.3554C41.6901 36.9947 40.3021 36.1342 38.783 36.1342H24.3685C22.8141 36.1342 21.4005 37.0347 20.7435 38.4434L17.3165 45.7906L14.6113 44.2687ZM8 42.3448C10.8587 45.7618 19.6961 52.3822 32.6988 52.3822C45.7109 52.3822 53.6421 45.7504 56.0445 42.2803L54.5804 41.2667C52.4974 44.2755 45.1036 50.6014 32.6988 50.6014C20.2844 50.6014 11.9273 44.264 9.3658 41.2021L8 42.3448Z" fill="#0CA5E6"/>
</svg>
