<svg width="68" height="68" viewBox="0 0 68 68" fill="none" xmlns="http://www.w3.org/2000/svg">
<circle cx="34" cy="34" r="33" fill="#0CA5E6" stroke="white" stroke-width="2"/>
<path fill-rule="evenodd" clip-rule="evenodd" d="M28.3583 23.3031C28.3583 22.0098 29.4068 20.9614 30.7001 20.9614H37.8704C39.1637 20.9614 40.2121 22.0098 40.2121 23.3031V27.7007H43.8832C45.4003 27.7007 46.6786 28.8333 46.8614 30.3394L48.475 43.6382C48.6919 45.4252 47.297 46.9996 45.4969 46.9996H22.2602C20.46 46.9996 19.0652 45.4252 19.282 43.6382L20.8957 30.3394C21.0785 28.8333 22.3568 27.7007 23.8739 27.7007H28.3583V23.3031ZM38.651 23.3031V27.7007H29.9195V23.3031C29.9195 22.872 30.269 22.5226 30.7001 22.5226H37.8704C38.3015 22.5226 38.651 22.872 38.651 23.3031ZM32.7203 33.1146H35.0371V35.8717H37.7945V38.1885H35.0371V40.946H32.7203V38.1885H29.9631V35.8717H32.7203V33.1146Z" fill="white"/>
</svg>
