<svg width="68" height="68" viewBox="0 0 68 68" fill="none" xmlns="http://www.w3.org/2000/svg">
<circle cx="34" cy="34" r="33" fill="#0CA5E6" stroke="white" stroke-width="2"/>
<path fill-rule="evenodd" clip-rule="evenodd" d="M19.2002 24.8799C19.2002 23.223 20.5433 21.8799 22.2002 21.8799H23.0546C24.7114 21.8799 26.0546 23.223 26.0546 24.8799V43.1206C26.0546 44.7774 24.7114 46.1206 23.0546 46.1206H22.2002C20.5433 46.1206 19.2002 44.7774 19.2002 43.1206V42.4439H16.9033C15.2465 42.4439 13.9033 41.1008 13.9033 39.4439V28.5566C13.9033 26.8998 15.2465 25.5566 16.9033 25.5566H19.2002V24.8799ZM48.7998 24.8799C48.7998 23.223 47.4567 21.8799 45.7998 21.8799H44.9454C43.2886 21.8799 41.9454 23.223 41.9454 24.8799V43.1206C41.9454 44.7774 43.2886 46.1206 44.9454 46.1206H45.7998C47.4567 46.1206 48.7998 44.7774 48.7998 43.1206V42.4439H51.0967C52.7535 42.4439 54.0967 41.1008 54.0967 39.4439V28.5566C54.0967 26.8998 52.7535 25.5566 51.0967 25.5566H48.7998V24.8799ZM40.8092 30.9775H27.1895V37.0224H40.8092V30.9775Z" fill="white"/>
</svg>
