<svg width="68" height="68" viewBox="0 0 68 68" fill="none" xmlns="http://www.w3.org/2000/svg">
<circle cx="34" cy="34" r="33" fill="#0CA5E6" stroke="white" stroke-width="2"/>
<path fill-rule="evenodd" clip-rule="evenodd" d="M19.4238 44.2908L22.1182 30.5681C21.3378 30.6043 20.3371 30.812 19.4211 31.332C18.2936 31.9722 17.2704 33.0956 16.9315 35.0535L15.4922 34.8043C15.9109 32.3853 17.22 30.902 18.6999 30.0617C20.0546 29.2926 21.5314 29.0713 22.5729 29.1048H35.0711C38.5836 15.9573 48.6704 16.0998 53.2748 17.8144C51.779 18.0308 50.97 19.2253 51.2114 19.9387C52.8397 23.5646 52.0488 27.8605 51.2114 28.1609C50.6328 28.3684 49.9974 27.6001 49.3225 26.7841C48.8456 26.2074 48.349 25.6069 47.8387 25.3101C45.7178 24.0763 44.4139 26.3355 44.6647 27.7181L47.4384 43.8056L45.2194 45.5392L42.3892 39.8391C41.7136 38.4785 40.3256 37.6179 38.8065 37.6179H27.8856C26.3312 37.6179 24.9176 38.5184 24.2605 39.9271L21.6429 45.5392L19.4238 44.2908ZM14 42.7127C16.345 45.5157 23.5945 50.9465 34.2607 50.9465C44.9347 50.9465 51.4409 45.5063 53.4116 42.6598L52.2105 41.8283C50.5018 44.2965 44.4366 49.4858 34.2607 49.4858C24.0771 49.4858 17.2216 44.2871 15.1204 41.7754L14 42.7127Z" fill="white"/>
</svg>
