<svg width="186" height="64" viewBox="0 0 186 64" fill="none" xmlns="http://www.w3.org/2000/svg">
<path fill-rule="evenodd" clip-rule="evenodd" d="M83.5294 5.68881L72.8053 30.4579C80.5641 32.9179 88.153 33.5592 94.006 29.5464L83.5294 5.68881ZM71.5705 30.0517L84.2369 0.990065H86.4159L97.4043 26.395L98.1196 28.0486L100.005 32.4067C101.061 34.8489 102.078 37.0906 104.187 38.9469C102.47 38.9469 100.753 38.9469 99.0352 38.9469H98.9827L95.681 38.9499C97.1836 36.8448 96.6128 35.4818 95.7108 33.4274L95.0117 31.8353C90.6721 35.6649 83.0068 38.2806 71.0938 35.3959L69.3986 34.9556C67.4605 34.42 65.4168 33.7435 63.2628 32.9078C61.2615 32.1365 59.2918 31.2793 57.3454 30.3762L53.6094 38.9493H51.4297L45.1216 24.3645C36.3749 20.1239 27.6902 16.7214 18.143 18.1095C15.5285 18.4727 13.177 19.2047 11.2383 20.2271L5.90311 32.5505C5.07515 34.4635 4.31399 37.5564 6.3827 38.9493H3.13289H1.69588H0C2.2083 37.8571 3.34466 35.168 4.28297 33.014L5.6824 29.8029V29.8023L5.81065 29.5083L9.33486 21.4219L11.4161 16.6456L11.4167 16.645L18.2402 0.988281H20.4199L25.7879 13.3994C30.4342 13.4978 35.7831 14.4606 41.771 16.6182L37.8411 7.53204C36.7847 5.08931 35.7676 2.84821 33.6584 0.991858C35.3757 0.991858 37.0931 0.991858 38.8104 0.991858H38.8629L42.1647 0.988281C40.662 3.09338 41.2329 4.45701 42.1354 6.51081L54.3169 34.25L65.9465 7.38709C66.7745 5.47407 67.5356 2.38055 65.4669 0.988281H68.7167H70.1537H71.8496C69.6413 2.0805 68.505 4.76958 67.5667 6.923L59.6807 25.0171C63.5229 26.883 67.5553 28.6928 71.5705 30.0517ZM71.073 36.5972L68.8265 36.0282C68.1131 37.2504 67.2189 38.3456 65.9954 38.9505H67.6919H69.1283H72.3781C71.5359 38.3826 71.163 37.5338 71.073 36.5972ZM94.4188 29.2535L94.13 29.4599C94.2279 29.3919 94.3233 29.3233 94.4188 29.2535ZM13.1848 15.7294C15.3913 14.7165 18.0094 13.9702 21.0134 13.6177L17.5316 5.68822L13.1848 15.7294ZM97.9418 28.3522L97.7676 28.6332C97.8279 28.5395 97.8851 28.4453 97.9418 28.3522ZM28.3213 19.2619C26.6636 18.9917 24.9886 18.8348 23.2897 18.8163L29.713 33.428C30.6155 35.4823 31.1864 36.8454 29.6838 38.9505L32.9855 38.9475H33.038C34.7553 38.9475 36.4727 38.9475 38.1901 38.9475C36.0808 37.0906 35.0637 34.8494 34.0073 32.4073L28.3213 19.2619Z" fill="url(#paint0_linear_138_340)"/>
<path fill-rule="evenodd" clip-rule="evenodd" d="M113.773 11.6641L109.747 12.5505L107.893 12.9048C109.067 13.8903 109.211 15.1274 109.211 16.5209V35.4573C109.211 37.121 108.9 37.6471 107.738 38.9499H109.211H109.889H113.065H113.773H115.216C113.999 37.585 113.773 37.1389 113.773 35.4149V18.8586L113.908 18.6779C115.748 16.2155 118.324 13.4256 121.601 13.1297C123.116 12.9925 125.082 13.4345 126.347 14.2858C127.097 14.7904 127.748 15.5074 128.191 16.1445C128.635 16.7816 128.87 17.3381 129.036 18.0247C129.614 20.4311 129.256 23.583 129.251 26.0747V35.4579C129.251 37.1215 128.94 37.6477 127.778 38.9505H129.251H129.929H133.105H133.813H135.256C134.039 37.5856 133.813 37.1394 133.813 35.4155V27.2349C133.796 25.2539 133.928 23.2609 133.863 21.3061C133.824 20.14 133.701 18.7626 133.456 17.6728C133.211 16.5829 132.843 15.7812 132.338 15.0547C131.833 14.3281 131.191 13.6773 130.409 13.1249C129.626 12.5726 128.702 12.1186 127.838 11.8162C126.975 11.5144 126.172 11.3646 125.38 11.299C124.587 11.2334 123.804 11.2525 122.86 11.413C119.191 12.0363 115.711 13.8658 113.772 17.1252V11.6641H113.773Z" fill="#00AEEF"/>
<path fill-rule="evenodd" clip-rule="evenodd" d="M139.521 12.9265H143.086V32.5131V32.5984C143.086 33.001 143.086 33.3953 143.166 33.9053C143.247 34.4195 143.408 35.0518 143.724 35.6698C145.885 39.889 154.224 40.8446 156.98 36.2926C157.183 35.958 157.183 35.8351 157.141 35.7265C157.098 35.6179 157.014 35.5237 156.858 35.5804C156.702 35.637 156.479 35.8476 156.08 36.2031C153.424 38.5701 150.626 39.0437 148.418 35.9341C148.061 35.4294 147.854 34.92 147.75 34.3635C147.654 33.8433 147.648 33.2814 147.647 32.5984V32.3461V12.9265H155.995V11.8796H147.647V11.2634C147.647 9.07243 147.647 6.88143 147.647 4.69043C145.936 8.1365 143.374 10.7928 139.55 12.2763L139.521 12.9265Z" fill="#00AEEF"/>
<path fill-rule="evenodd" clip-rule="evenodd" d="M179.532 25.5853C177.362 24.7167 175.241 24.1799 172.892 24.0946C169.763 23.9806 165.7 24.5014 163.136 26.4299C161.451 27.6975 160.205 29.6928 160.169 31.8361C160.08 37.1183 165.695 39.7364 170.355 39.4435C173.453 39.249 176.645 38.0542 178.978 35.9825C179.441 35.5721 179.676 35.3174 179.794 35.2279C179.912 35.1384 179.912 35.2136 179.912 35.596C179.912 35.9783 179.912 36.6667 179.969 37.1767C180.026 37.6862 180.139 38.0166 180.248 38.2713C180.356 38.526 180.46 38.705 180.554 38.7999C180.649 38.8941 180.734 38.9036 181.649 38.9084C182.564 38.9132 184.31 38.9132 185.183 38.9036C186.055 38.8941 186.055 38.875 185.956 38.7575C185.857 38.6394 185.659 38.4228 185.476 38.1586C185.291 37.8943 185.122 37.583 184.942 36.9322C184.763 36.2814 184.574 35.2905 184.48 33.8136C184.386 32.3372 184.386 30.3747 184.386 28.1765C184.386 25.9778 184.386 23.544 184.371 21.9256C184.358 20.3073 184.329 19.5056 184.206 18.8214C184.083 18.1372 183.867 17.5711 183.603 17.0193C183.338 16.4669 183.027 15.9295 182.603 15.4248C182.178 14.9202 181.641 14.4483 180.989 13.9622C180.338 13.4766 179.574 12.9761 178.744 12.5896C177.914 12.203 177.018 11.9292 176.045 11.7216C175.074 11.5141 174.026 11.3727 173.064 11.3303C172.102 11.288 171.224 11.3446 170.328 11.4675C169.432 11.5898 168.516 11.7789 167.705 12.0241C166.368 12.4285 164.683 13.2141 163.622 14.1256C161.163 16.2373 161.151 20.7326 165.143 20.7326C165.737 20.7326 166.379 20.5393 166.851 20.2989C167.322 20.0585 167.624 19.7704 167.827 19.4567C168.03 19.1429 168.134 18.8029 168.186 18.5249C168.237 18.2463 168.237 18.0292 168.223 17.9165C168.209 17.8031 168.181 17.7936 168.025 17.7888C167.869 17.784 167.587 17.784 167.322 17.6993C167.058 17.614 166.813 17.4446 166.572 17.2036C166.332 16.9632 166.096 16.6518 165.978 16.279C165.86 15.9062 165.86 15.4725 166.002 15.0621C166.143 14.6517 166.426 14.2646 166.841 13.9108C167.256 13.5571 167.803 13.2362 168.422 13.0047C169.04 12.7739 169.729 12.6319 170.512 12.5472C171.295 12.4625 172.173 12.4339 172.965 12.4953C173.758 12.5568 174.465 12.7077 175.145 12.9576C175.824 13.2076 176.475 13.5565 177.136 14.0803C177.796 14.604 178.466 15.3019 178.933 16.038C179.4 16.7741 179.664 17.5478 179.81 18.272C179.957 18.9961 179.985 19.6714 180.004 20.4827C180.023 21.2939 180.032 22.2418 180.037 23.0745C180.042 23.9072 180.042 24.6243 180.042 25.0603C180.042 25.4964 180.042 25.6527 180.03 25.7207C180.016 25.7881 179.992 25.769 179.532 25.5853ZM179.944 27.1398C179.958 27.2012 179.986 27.3235 180.001 27.4511C180.015 27.5788 180.015 27.7106 180.015 28.7247C180.015 29.7394 180.015 31.6357 180.015 32.5836C180.015 33.5314 180.015 33.5314 179.916 33.6352C177.936 35.7093 175.387 37.2799 172.481 37.5084C169.132 37.7715 165.848 36.4591 165.353 32.7202C164.428 25.7362 170.995 24.6672 176.51 25.806C177.279 25.9646 177.911 26.1531 178.458 26.3703C179.005 26.5874 179.468 26.8326 179.699 26.9554C179.93 27.0783 179.93 27.0783 179.944 27.1398Z" fill="#00AEEF"/>
<path fill-rule="evenodd" clip-rule="evenodd" d="M47.9079 62.8727H47.1855L50.2844 59.8902L47.4766 57.3156H48.1758L50.8088 59.7619V57.3156H51.3212V59.7506L53.9542 57.3156H54.6533L51.8575 59.8902L54.9444 62.8727H54.2107L51.3218 60.0769V62.8727H50.8094V60.0649L47.9079 62.8727ZM56.8079 62.8727H56.3188V57.3156H56.8431V62.0806L60.8273 57.3156H61.305V62.8727H60.7807V58.1197L56.8079 62.8727ZM64.1827 59.098L64.2292 57.3156H68.1435V62.8727H67.6192V57.7934H64.7416L64.707 58.9697C64.6992 59.506 64.6682 59.9832 64.6139 60.4026C64.5674 60.7986 64.4821 61.1989 64.3574 61.6028C64.1087 62.457 63.5921 62.8841 62.8077 62.8841C62.7069 62.8841 62.6371 62.8805 62.5977 62.8727V62.3836C62.6365 62.3913 62.7146 62.3955 62.831 62.3955C63.3666 62.3955 63.7239 62.0346 63.9029 61.3123C64.0508 60.7444 64.1439 60.0071 64.1827 59.098ZM71.0676 61.8354C71.5413 62.2941 72.1163 62.5226 72.7916 62.5226C73.4752 62.5226 74.046 62.2935 74.5041 61.8354C74.97 61.3695 75.2033 60.7909 75.2033 60.0995C75.2033 59.4082 74.9706 58.8296 74.5041 58.3637C74.046 57.8972 73.4752 57.6646 72.7916 57.6646C72.1086 57.6646 71.5335 57.8978 71.0676 58.3637C70.6095 58.8373 70.3805 59.4159 70.3805 60.0995C70.3805 60.7837 70.6095 61.3618 71.0676 61.8354ZM74.9116 62.1617C74.3681 62.729 73.6613 63.0123 72.7916 63.0123C71.9141 63.0123 71.2036 62.729 70.6596 62.1617C70.1162 61.595 69.8442 60.9072 69.8442 60.0995C69.8442 59.2919 70.1162 58.6047 70.6596 58.0374C71.2108 57.4623 71.9218 57.1754 72.7916 57.1754C73.6535 57.1754 74.3604 57.4629 74.9116 58.0374C75.4627 58.6124 75.7389 59.299 75.7389 60.0995C75.7389 60.9001 75.4633 61.5872 74.9116 62.1617ZM77.9174 62.8727H77.4282V57.3156H77.9526V62.0806L81.9367 57.3156H82.4145V62.8727H81.8902V58.1197L77.9174 62.8727ZM79.9098 56.3719C79.3663 56.3719 78.9291 56.218 78.5992 55.9114C78.2693 55.6048 78.1041 55.2069 78.1041 54.7178H78.5819C78.5819 55.0751 78.7042 55.3662 78.9488 55.5917C79.1933 55.8171 79.5137 55.9293 79.9098 55.9293C80.2981 55.9293 80.6124 55.8148 80.8534 55.5857C81.0938 55.3566 81.2144 55.0673 81.2144 54.7178H81.6921C81.6921 55.1914 81.5215 55.5875 81.1797 55.906C80.8457 56.2168 80.4222 56.3719 79.9098 56.3719ZM88.1697 62.8727H87.6454V57.3156H88.1697V59.6569L91.0938 57.3156H91.8628L88.7286 59.8323L92.2821 62.8727H91.4899L88.1697 60.0303V62.8727ZM94.0991 61.8354C94.5727 62.2941 95.1477 62.5226 95.823 62.5226C96.5066 62.5226 97.0775 62.2935 97.5356 61.8354C98.0015 61.3695 98.2347 60.7909 98.2347 60.0995C98.2347 59.4082 98.0015 58.8296 97.5356 58.3637C97.0775 57.8972 96.5066 57.6646 95.823 57.6646C95.1394 57.6646 94.5649 57.8978 94.0991 58.3637C93.6409 58.8373 93.4119 59.4159 93.4119 60.0995C93.4119 60.7837 93.6409 61.3618 94.0991 61.8354ZM97.9436 62.1617C97.4002 62.729 96.6933 63.0123 95.8236 63.0123C94.9461 63.0123 94.2357 62.729 93.6917 62.1617C93.1482 61.595 92.8762 60.9072 92.8762 60.0995C92.8762 59.2919 93.1482 58.6047 93.6917 58.0374C94.2428 57.4623 94.9539 57.1754 95.8236 57.1754C96.6855 57.1754 97.3924 57.4629 97.9436 58.0374C98.4948 58.6124 98.771 59.299 98.771 60.0995C98.771 60.9001 98.4948 61.5872 97.9436 62.1617ZM100.984 62.8727H100.46V57.3156H100.961L103.43 60.1115L105.9 57.3156H106.401V62.8727H105.877V58.0612L103.523 60.7289H103.325L100.984 58.0612V62.8727ZM109.034 62.8727H108.51V57.3156H113.344V62.8727H112.819V57.7934H109.033V62.8727H109.034ZM116.222 59.098L116.269 57.3156H120.183V62.8727H119.659V57.7934H116.781L116.746 58.9697C116.739 59.506 116.708 59.9832 116.653 60.4026C116.607 60.7986 116.521 61.1989 116.397 61.6028C116.149 62.457 115.632 62.8841 114.848 62.8841C114.747 62.8841 114.677 62.8805 114.638 62.8727V62.3836C114.676 62.3913 114.755 62.3955 114.871 62.3955C115.407 62.3955 115.764 62.0346 115.943 61.3123C116.09 60.7444 116.183 60.0071 116.222 59.098ZM124.913 63.0123C124.035 63.0123 123.313 62.7403 122.746 62.1969C122.171 61.6451 121.884 60.946 121.884 60.0995C121.884 59.2608 122.141 58.5659 122.653 58.0141C123.165 57.4552 123.829 57.1754 124.645 57.1754C125.103 57.1754 125.507 57.2667 125.856 57.4492C126.206 57.6317 126.474 57.8787 126.66 58.1889C127.025 58.7711 127.207 59.3736 127.207 59.9946V60.1693H122.408C122.423 60.8762 122.668 61.4429 123.142 61.87C123.624 62.3049 124.237 62.5226 124.982 62.5226C125.651 62.5226 126.249 62.3478 126.777 61.9982V62.5107C126.342 62.8453 125.72 63.0123 124.913 63.0123ZM122.42 59.7154H126.684C126.684 59.4982 126.645 59.2769 126.567 59.0515C126.49 58.8266 126.375 58.6071 126.224 58.3935C126.073 58.1799 125.857 58.0052 125.578 57.8698C125.298 57.7338 124.984 57.6658 124.634 57.6658C123.981 57.6658 123.457 57.8757 123.061 58.2951C122.664 58.7138 122.451 59.1875 122.42 59.7154ZM129.421 62.8727H128.897V57.3156H129.421V59.6569L132.345 57.3156H133.114L129.981 59.8323L133.534 62.8727H132.742L129.422 60.0303V62.8727H129.421ZM137.052 63.0123C136.198 63.0123 135.498 62.729 134.954 62.1617C134.403 61.5872 134.128 60.8959 134.128 60.0882C134.128 59.2883 134.403 58.6011 134.954 58.026C135.498 57.4588 136.201 57.1754 137.063 57.1754C137.684 57.1754 138.244 57.3192 138.74 57.6067V58.1191C138.22 57.8161 137.68 57.6646 137.121 57.6646C136.422 57.6646 135.835 57.8978 135.362 58.3637C134.896 58.8296 134.663 59.4082 134.663 60.0995C134.663 60.7909 134.896 61.3695 135.362 61.8354C135.844 62.2941 136.43 62.5226 137.121 62.5226C137.774 62.5226 138.348 62.3478 138.845 61.9982V62.5226C138.357 62.8495 137.759 63.0123 137.052 63.0123Z" fill="#005497"/>
<defs>
<linearGradient id="paint0_linear_138_340" x1="104.185" y1="20.1671" x2="0.123236" y2="19.8308" gradientUnits="userSpaceOnUse">
<stop stop-color="#00AEEF"/>
<stop offset="1" stop-color="#004A8F"/>
</linearGradient>
</defs>
</svg>
